<?xml version="1.0" encoding="UTF-8"?>
<!-- Generator: visioncortex VTracer 0.6.3 -->
<svg version="1.1" xmlns="http://www.w3.org/2000/svg" width="1280" height="1149">
<path d="M0 0 C422.4 0 844.8 0 1280 0 C1280 379.17 1280 758.34 1280 1149 C857.6 1149 435.2 1149 0 1149 C0 769.83 0 390.66 0 0 Z " fill="#FBFDFD" transform="translate(0,0)"/>
<path d="M0 0 C3.84 1.88 7.16 4.27 10.61 6.77 C12.13 7.86 13.66 8.95 15.18 10.04 C15.96 10.6 16.74 11.16 17.54 11.73 C21.15 14.33 24.79 16.89 28.42 19.46 C29.12 19.95 29.82 20.45 30.54 20.96 C34.74 23.93 38.98 26.85 43.23 29.74 C49.15 33.77 54.89 37.88 60.41 42.45 C62.72 44.29 65.07 45.98 67.5 47.64 C72.84 51.35 78.02 55.25 83.17 59.21 C84.09 59.91 85.01 60.62 85.95 61.34 C88.59 63.36 91.22 65.38 93.86 67.4 C95.11 68.36 96.36 69.32 97.62 70.27 C100.71 72.64 103.78 75.02 106.86 77.4 C107.4 77.81 107.93 78.23 108.48 78.66 C116.37 84.77 124.12 91.04 131.81 97.41 C135.6 100.54 139.39 103.65 143.23 106.71 C151.47 113.28 159.55 119.93 167.3 127.06 C170.11 129.63 172.98 132.14 175.85 134.64 C178.11 136.62 180.33 138.63 182.55 140.65 C185.87 143.65 189.25 146.58 192.69 149.44 C198.19 154.03 203.38 158.74 208.35 163.91 C210.32 165.87 212.31 167.67 214.42 169.47 C219.28 173.7 223.82 178.21 228.36 182.77 C229.25 183.65 230.13 184.53 231.04 185.44 C233.36 187.76 235.68 190.09 238.01 192.42 C239.42 193.83 240.84 195.25 242.25 196.66 C245 199.4 247.75 202.15 250.49 204.89 C251.32 205.73 252.16 206.56 253.02 207.42 C257.31 211.73 261.45 216.1 265.4 220.73 C267.42 223.04 269.59 225.15 271.8 227.27 C275.89 231.32 279.47 235.56 283 240.1 C284.69 242.18 286.43 244.04 288.36 245.9 C291.71 249.15 294.56 252.67 297.43 256.34 C299.88 259.43 302.39 262.47 304.91 265.51 C311.41 273.34 317.73 281.27 323.86 289.4 C324.58 290.35 325.31 291.29 326.05 292.27 C341.46 312.58 355.56 333.84 368.78 355.62 C369.5 356.81 370.22 357.99 370.95 359.17 C376.96 368.97 382.39 379.06 387.67 389.27 C387.99 389.89 388.31 390.51 388.64 391.15 C392.61 398.8 396.4 406.5 399.86 414.4 C400.3 415.41 400.75 416.43 401.21 417.47 C414.7 448.55 425.36 480.87 431.36 514.27 C431.53 515.22 431.7 516.18 431.88 517.16 C432.03 518.04 432.18 518.92 432.33 519.83 C432.46 520.59 432.58 521.36 432.72 522.15 C432.89 524.89 432.81 526.8 431.86 529.4 C429.56 530.8 429.56 530.8 426.48 531.91 C424.78 532.54 424.78 532.54 423.04 533.19 C421.8 533.63 420.57 534.07 419.3 534.52 C416.72 535.48 414.14 536.46 411.57 537.44 C410.91 537.69 410.26 537.93 409.59 538.19 C391.61 545.02 374.53 553.84 357.86 563.4 C356.99 563.89 356.13 564.39 355.23 564.9 C338.86 574.36 323.46 584.96 308.76 596.86 C307.31 598.04 305.84 599.2 304.37 600.37 C297.57 605.82 291.31 611.64 285.17 617.84 C284.29 618.71 283.4 619.59 282.49 620.49 C276.84 626.16 271.74 632.06 266.86 638.4 C265.78 639.75 264.7 641.11 263.62 642.46 C256.41 651.65 250.05 661.12 244.16 671.2 C243.25 672.73 242.33 674.25 241.4 675.77 C224.24 703.65 213.99 736.43 208.11 768.46 C207.91 769.54 207.71 770.61 207.51 771.72 C204.07 791.53 203.59 811.14 203.73 831.21 C203.74 833.67 203.75 836.13 203.76 838.58 C203.78 844.52 203.82 850.46 203.86 856.4 C201.68 853.56 200.1 850.98 198.73 847.67 C198.34 846.74 197.95 845.8 197.55 844.84 C197.14 843.83 196.72 842.82 196.3 841.77 C195.86 840.71 195.42 839.65 194.97 838.55 C162.63 759.58 136.59 677.6 113.86 595.4 C113.67 594.7 113.47 594 113.27 593.27 C98.77 540.76 84.94 487.95 73.25 434.73 C72.21 429.99 71.16 425.26 70.09 420.54 C59.79 374.75 50.14 328.72 42.37 282.43 C41.29 276.07 40.14 269.72 38.86 263.4 C37.92 268.34 37.56 273.18 37.32 278.2 C37.26 279.54 37.26 279.54 37.19 280.92 C34.29 344.25 35.05 407.88 37.73 471.2 C37.85 474.24 37.97 477.29 38.09 480.34 C39.11 507.5 41 534.57 43.11 561.67 C43.72 569.51 44.3 577.36 44.88 585.2 C45.21 589.6 45.53 594 45.86 598.4 C45.93 599.32 46 600.25 46.07 601.2 C50.36 659.09 56.99 716.89 64.86 774.4 C65.01 775.47 65.15 776.53 65.3 777.63 C73.98 840.71 84.92 903.58 99.34 965.6 C99.54 966.46 99.74 967.33 99.94 968.22 C100.12 968.98 100.3 969.74 100.48 970.53 C100.86 972.4 100.86 972.4 100.86 974.4 C95.34 973.85 90.4 972.8 85.16 970.96 C84.45 970.71 83.74 970.47 83.01 970.22 C80.73 969.43 78.45 968.64 76.17 967.84 C74.59 967.29 73.01 966.74 71.42 966.19 C59.82 962.14 48.26 957.98 36.86 953.4 C36.1 953.1 35.35 952.79 34.57 952.48 C4.56 940.34 -24.23 925.78 -52.14 909.4 C-53.26 908.75 -53.26 908.75 -54.4 908.08 C-62.5 903.31 -70.32 898.11 -78.14 892.9 C-78.87 892.41 -79.6 891.92 -80.36 891.42 C-91.67 883.88 -102.67 876.1 -113.14 867.4 C-113.74 866.9 -114.34 866.41 -114.96 865.9 C-122.2 859.93 -129.21 853.72 -136.14 847.4 C-137.04 846.59 -137.94 845.79 -138.86 844.96 C-144.88 839.52 -150.71 833.93 -156.45 828.21 C-157.11 827.56 -157.77 826.9 -158.45 826.23 C-162.88 821.78 -167.06 817.17 -171.14 812.4 C-171.61 811.85 -172.09 811.31 -172.57 810.74 C-219.26 756.79 -248.17 689.03 -257.14 618.4 C-257.28 617.31 -257.28 617.31 -257.42 616.2 C-259.31 601.04 -259.5 585.97 -259.45 570.71 C-259.45 569.45 -259.45 568.2 -259.45 566.9 C-259.4 547.23 -258.81 527.91 -256.14 508.4 C-255.89 506.53 -255.89 506.53 -255.64 504.62 C-249.53 460.29 -237.37 417.49 -222.79 375.28 C-222.21 373.6 -221.63 371.91 -221.05 370.22 C-211.68 343.03 -200.12 316.64 -187.72 290.71 C-186.26 287.65 -184.82 284.59 -183.39 281.53 C-178.4 270.88 -173.13 260.42 -167.57 250.06 C-165.99 247.12 -164.42 244.18 -162.86 241.24 C-139.77 198.04 -114.28 156.58 -87.14 115.84 C-86.6 115.02 -86.05 114.2 -85.49 113.36 C-79.45 104.29 -73.38 95.24 -67.23 86.25 C-66.71 85.49 -66.2 84.73 -65.67 83.96 C-56.53 70.62 -46.88 57.65 -37.28 44.66 C-34.87 41.4 -32.5 38.12 -30.14 34.84 C-26.01 29.13 -21.65 23.6 -17.3 18.05 C-13.26 12.88 -9.36 7.65 -5.59 2.27 C-3.72 -0.15 -3.01 -0.85 0 0 Z " fill="#77914D" transform="translate(364.140625,2.6015625)"/>
<path d="M0 0 C5.35 0.02 10.69 0.03 16.04 0.04 C26.41 0.06 36.77 0.09 47.14 0.14 C51.07 7.99 49.29 19.38 49.27 27.99 C49.28 29.54 49.28 31.09 49.28 32.64 C49.28 35.88 49.28 39.13 49.27 42.38 C49.27 46.44 49.27 50.5 49.28 54.56 C49.31 82.16 48.84 109.72 46.83 137.26 C46.73 138.61 46.73 138.61 46.63 139.98 C40.85 219.8 27.96 302.32 -6.86 375.14 C-7.21 375.88 -7.57 376.63 -7.93 377.4 C-10.14 382.04 -12.46 386.6 -14.86 391.14 C-15.25 391.9 -15.65 392.66 -16.06 393.44 C-22.8 406.32 -30.38 418.34 -38.86 430.14 C-39.27 430.72 -39.69 431.3 -40.12 431.9 C-49.34 444.79 -60.02 456.59 -70.86 468.14 C-71.78 469.12 -71.78 469.12 -72.71 470.12 C-77.69 475.27 -83.28 479.66 -88.86 484.14 C-89.62 484.77 -90.37 485.41 -91.15 486.07 C-125.5 514.61 -168.13 531.03 -211.86 538.14 C-213.04 538.33 -213.04 538.33 -214.25 538.54 C-229.61 541.02 -244.72 541.61 -260.26 541.53 C-264.02 541.51 -267.79 541.53 -271.55 541.55 C-295.12 541.57 -318.23 539.24 -341.36 534.76 C-342.98 534.45 -344.61 534.15 -346.23 533.84 C-354.89 532.18 -363.54 530.45 -372.11 528.39 C-372.9 528.2 -373.69 528.02 -374.5 527.82 C-379.61 526.51 -379.61 526.51 -381.86 523.14 C-374.74 508.47 -367.03 494.24 -358.86 480.14 C-358.53 479.57 -358.2 479 -357.86 478.41 C-329.86 430.03 -299.1 383.35 -263.99 339.8 C-262.38 337.79 -260.78 335.76 -259.2 333.72 C-254.56 327.76 -249.89 321.92 -244.81 316.33 C-242.64 313.89 -240.59 311.37 -238.55 308.82 C-234.36 303.66 -229.93 298.77 -225.4 293.9 C-223.38 291.7 -221.42 289.48 -219.48 287.2 C-215.79 282.93 -211.77 279 -207.74 275.06 C-204.87 272.23 -202.14 269.35 -199.51 266.3 C-195.52 261.68 -191.25 257.38 -186.92 253.07 C-185.78 251.93 -185.78 251.93 -184.62 250.76 C-180.41 246.56 -176.1 242.54 -171.6 238.65 C-169.47 236.8 -167.46 234.84 -165.48 232.82 C-164.51 231.84 -164.51 231.84 -163.52 230.84 C-162.97 230.28 -162.42 229.72 -161.86 229.14 C-161.2 228.48 -160.54 227.82 -159.86 227.14 C-160.54 227.56 -161.23 227.99 -161.94 228.43 C-166.17 230.91 -170.59 232.98 -174.99 235.13 C-178.89 237.09 -182.6 239.33 -186.32 241.6 C-188.67 243.02 -191.03 244.43 -193.4 245.82 C-205.54 253 -217.37 260.61 -229.15 268.37 C-231.94 270.19 -234.75 271.98 -237.56 273.76 C-241.93 276.53 -246.23 279.38 -250.48 282.32 C-251.15 282.79 -251.83 283.25 -252.52 283.73 C-260.34 289.14 -268.11 294.62 -275.86 300.14 C-276.59 300.66 -277.32 301.17 -278.07 301.71 C-288.87 309.39 -299.41 317.36 -309.84 325.56 C-312.7 327.8 -315.59 330 -318.48 332.2 C-330.34 341.31 -341.82 350.87 -353.13 360.65 C-354.89 362.16 -356.65 363.67 -358.42 365.17 C-365.08 370.83 -371.62 376.6 -378.05 382.54 C-387.83 391.58 -387.83 391.58 -392.42 395.46 C-399.02 401.09 -405.09 407.22 -411.21 413.35 C-412.39 414.53 -413.57 415.72 -414.75 416.9 C-417.22 419.36 -419.68 421.83 -422.15 424.3 C-425.29 427.44 -428.43 430.58 -431.58 433.72 C-434.01 436.16 -436.45 438.59 -438.89 441.03 C-440.04 442.19 -441.2 443.35 -442.36 444.5 C-450.64 452.76 -450.64 452.76 -458.37 461.53 C-460.04 463.33 -461.85 464.72 -463.86 466.14 C-466.75 462.79 -468.01 459.26 -469.28 455.1 C-469.49 454.4 -469.71 453.71 -469.94 452.99 C-470.65 450.69 -471.35 448.38 -472.05 446.07 C-472.29 445.28 -472.53 444.48 -472.78 443.66 C-481.45 414.89 -487.33 385.96 -490.86 356.14 C-490.99 355.04 -491.12 353.94 -491.26 352.81 C-499.66 279.32 -483.39 202.47 -437.57 143.53 C-436.67 142.4 -435.76 141.27 -434.86 140.14 C-434.21 139.32 -433.57 138.51 -432.9 137.67 C-427.51 130.94 -421.78 124.71 -415.67 118.64 C-414.75 117.72 -413.83 116.81 -412.89 115.86 C-405.92 109.01 -398.72 102.92 -390.86 97.14 C-389.39 95.96 -389.39 95.96 -387.89 94.75 C-328.02 46.77 -249.24 25.47 -175.03 12.52 C-172.98 12.16 -170.93 11.8 -168.88 11.43 C-150.44 8.21 -131.93 6.21 -113.3 4.45 C-112.23 4.35 -111.16 4.24 -110.07 4.14 C-73.4 0.64 -36.82 -0.16 0 0 Z " fill="#77914D" transform="translate(1121.8578491210938,555.8626708984375)"/>
</svg>
